<?xml version="1.0" encoding="UTF-8"?>
<!DOCTYPE svg PUBLIC "-//W3C//DTD SVG 1.1//EN" "http://www.w3.org/Graphics/SVG/1.1/DTD/svg11.dtd">
<!-- Creator: CorelDRAW -->
<svg xmlns="http://www.w3.org/2000/svg" xml:space="preserve" width="62.7494mm" height="67.75mm" version="1.1" style="shape-rendering:geometricPrecision; text-rendering:geometricPrecision; image-rendering:optimizeQuality; fill-rule:evenodd; clip-rule:evenodd"
viewBox="0 0 210.53 227.31"
 xmlns:xlink="http://www.w3.org/1999/xlink"
 xmlns:xodm="http://www.corel.com/coreldraw/odm/2003">
 <defs>
  <style type="text/css">
   <![CDATA[
    .str0 {stroke:#0B1D26;stroke-width:2.52;stroke-miterlimit:22.9256}
    .str1 {stroke:#FCD975;stroke-width:2.52;stroke-miterlimit:22.9256}
    .fil1 {fill:#0B1D26}
    .fil0 {fill:#74B8EC}
    .fil2 {fill:#FCD975}
   ]]>
  </style>
 </defs>
 <g id="Слой_x0020_1">
  <metadata id="CorelCorpID_0Corel-Layer"/>
  <g id="_2354875400736">
   <path class="fil0 str0" d="M204.42 92.18c1.57,6.86 2.39,13.99 2.39,21.31 0,13.72 -2.9,26.78 -8.14,38.64 1.1,0.16 2.19,0.53 3.19,1.14l3.52 2.14c3.88,2.35 5.06,7.35 2.63,11.11l-8.84 13.66c-2.43,3.76 -7.59,4.9 -11.47,2.55l-3.52 -2.14c-1.02,-0.62 -1.86,-1.42 -2.49,-2.34 -3.84,4.24 -8.04,8.17 -12.57,11.72 0.93,0.65 1.73,1.49 2.34,2.5l2.08 3.49c2.29,3.84 0.92,8.79 -3.05,11.01l-14.41 8.06c-3.96,2.22 -9.08,0.89 -11.37,-2.95l-2.08 -3.49c-0.61,-1.02 -0.96,-2.11 -1.07,-3.21 -6.51,2.41 -13.33,4.2 -20.41,5.28 0.48,1.01 0.74,2.14 0.74,3.32l0 4.03c0,4.43 -3.74,8.06 -8.32,8.06l-16.64 0c-4.58,0 -8.32,-3.63 -8.32,-8.06l0 -4.03c0,-1.18 0.27,-2.31 0.74,-3.32 -7.07,-1.08 -13.9,-2.87 -20.41,-5.28 -0.11,1.1 -0.46,2.2 -1.07,3.22l-2.08 3.49c-2.29,3.84 -7.4,5.17 -11.37,2.95l-14.41 -8.06c-3.96,-2.22 -5.33,-7.17 -3.05,-11.01l2.08 -3.49c0.61,-1.02 1.41,-1.86 2.34,-2.5 -12.87,-10.09 -23.14,-23.17 -29.69,-38.14l16.39 -5.07c13.11,28.64 42.73,48.62 77.16,48.62 46.6,0 84.37,-36.59 84.37,-81.72 0,-5.61 -0.58,-11.08 -1.7,-16.37l16.48 -5.1z"/>
   <path class="fil1 str1" d="M121.29 16.37c7.04,1.08 13.83,2.87 20.31,5.27 0.14,-1 0.48,-1.99 1.03,-2.92l2.08 -3.49c2.29,-3.84 7.4,-5.17 11.37,-2.95l14.41 8.06c3.96,2.22 5.33,7.17 3.05,11.01l-2.08 3.49c-0.56,0.94 -1.29,1.73 -2.13,2.35 12.79,10.09 23,23.13 29.51,38.05l-16.51 5.11c-13.16,-28.53 -42.71,-48.42 -77.07,-48.42 -46.6,0 -84.37,36.59 -84.37,81.72 0,5.53 0.57,10.93 1.65,16.16l-16.42 5.08c-1.58,-6.89 -2.41,-14.05 -2.41,-21.4 0,-13.6 2.85,-26.56 8.01,-38.34 -1.06,-0.17 -2.1,-0.54 -3.06,-1.12l-3.53 -2.14c-3.88,-2.35 -5.06,-7.35 -2.63,-11.11l8.84 -13.66c2.43,-3.76 7.59,-4.9 11.47,-2.55l3.52 2.14c0.96,0.58 1.75,1.32 2.36,2.16 3.81,-4.23 7.99,-8.14 12.49,-11.69 -0.84,-0.62 -1.57,-1.41 -2.13,-2.35l-2.08 -3.49c-2.29,-3.84 -0.92,-8.79 3.05,-11.01l14.41 -8.06c3.96,-2.22 9.08,-0.89 11.37,2.95l2.08 3.49c0.55,0.92 0.89,1.91 1.03,2.91 6.48,-2.41 13.27,-4.19 20.31,-5.27 -0.39,-0.93 -0.61,-1.96 -0.61,-3.02l0 -4.03c0,-4.43 3.74,-8.06 8.32,-8.06l16.64 0c4.58,0 8.32,3.63 8.32,8.06l0 4.03c0,1.07 -0.22,2.09 -0.61,3.02z"/>
   <path class="fil1 str1" d="M120.8 73.37c1.4,0.23 2.8,0.53 4.2,0.91 6.17,1.65 11.68,4.55 16.37,8.36 0.2,-0.48 0.51,-0.93 0.9,-1.31l1.39 -1.35c1.53,-1.48 3.92,-1.42 5.31,0.14l5.06 5.67c1.39,1.56 1.28,4.05 -0.25,5.53l-1.39 1.35c-0.4,0.39 -0.87,0.67 -1.36,0.85 1.44,2.26 2.69,4.65 3.73,7.14 0.4,-0.34 0.88,-0.61 1.41,-0.76l1.82 -0.53c2,-0.58 4.06,0.64 4.58,2.71l1.86 7.53c0.51,2.07 -0.71,4.24 -2.71,4.82l-1.82 0.53c-0.53,0.15 -1.07,0.18 -1.58,0.1 0.29,3.25 0.26,6.58 -0.12,9.93 0.51,-0.1 1.05,-0.08 1.58,0.06l1.81 0.49c1.99,0.53 3.17,2.68 2.61,4.76l-2.03 7.58c-0.56,2.08 -2.65,3.35 -4.64,2.82l-1.81 -0.49c-0.53,-0.14 -1,-0.4 -1.4,-0.74 -1.35,3.09 -2.98,5.98 -4.86,8.66 0.48,0.18 0.93,0.47 1.32,0.87l1.31 1.37c1.45,1.5 1.42,3.99 -0.06,5.53l-5.38 5.59c-1.48,1.54 -3.87,1.56 -5.32,0.06l-1.31 -1.37c-0.38,-0.4 -0.66,-0.87 -0.84,-1.37 -5.46,4.15 -11.74,7.07 -18.39,8.49l0 -11.04c12.16,-3.27 22.43,-13.09 26.04,-26.56 5.29,-19.73 -5.72,-39.83 -24.58,-44.88 -0.49,-0.13 -0.97,-0.25 -1.46,-0.35l0 -11.08z"/>
   <path class="fil1 str1" d="M56.08 101.52c1.34,-3.07 2.98,-5.95 4.85,-8.61 -0.43,-0.18 -0.84,-0.46 -1.19,-0.82l-1.31 -1.37c-1.45,-1.5 -1.42,-3.99 0.06,-5.53l5.38 -5.59c1.48,-1.54 3.87,-1.57 5.32,-0.06l1.31 1.37c0.35,0.37 0.62,0.8 0.8,1.25 5.47,-4.14 11.77,-7.05 18.43,-8.44l0 11.11c-12.16,3.27 -22.43,13.09 -26.04,26.56 -5.29,19.73 5.72,39.83 24.58,44.88 0.48,0.13 0.97,0.25 1.46,0.35l0 11.07c-1.45,-0.24 -2.9,-0.55 -4.34,-0.93 -6.11,-1.64 -11.59,-4.5 -16.26,-8.27 -0.2,0.46 -0.5,0.89 -0.88,1.26l-1.39 1.35c-1.53,1.48 -3.92,1.42 -5.31,-0.14l-5.06 -5.67c-1.39,-1.56 -1.28,-4.05 0.25,-5.53l1.39 -1.35c0.38,-0.36 0.81,-0.64 1.26,-0.81 -1.44,-2.24 -2.69,-4.62 -3.73,-7.09 -0.38,0.31 -0.83,0.54 -1.32,0.69l-1.82 0.53c-2,0.58 -4.06,-0.64 -4.58,-2.71l-1.86 -7.53c-0.51,-2.07 0.71,-4.24 2.71,-4.82l1.82 -0.53c0.48,-0.14 0.97,-0.17 1.44,-0.12 -0.29,-3.24 -0.26,-6.55 0.11,-9.88 -0.47,0.07 -0.95,0.04 -1.43,-0.09l-1.81 -0.49c-1.99,-0.53 -3.17,-2.67 -2.61,-4.76l2.03 -7.58c0.56,-2.08 2.65,-3.35 4.64,-2.82l1.81 0.49c0.48,0.13 0.91,0.35 1.28,0.64z"/>
   <path class="fil2 str0" d="M60.62 62.92l0 -4.06c0,-3.35 2.74,-6.09 6.09,-6.09l36.53 0 4.06 0 36.53 0c3.35,0 6.09,2.74 6.09,6.09l0 4.06c0,3.35 -2.74,6.09 -6.09,6.09l-30.44 0 0 99.44c0,3.35 -2.74,6.09 -6.09,6.09l-4.06 0c-3.35,0 -6.09,-2.74 -6.09,-6.09l0 -99.44 -30.44 0c-3.35,0 -6.09,-2.74 -6.09,-6.09z"/>
  </g>
 </g>
</svg>
