<?xml version="1.0" encoding="UTF-8"?>
<!DOCTYPE svg PUBLIC "-//W3C//DTD SVG 1.1//EN" "http://www.w3.org/Graphics/SVG/1.1/DTD/svg11.dtd">
<!-- Creator: CorelDRAW -->
<svg xmlns="http://www.w3.org/2000/svg" xml:space="preserve" width="62.4994mm" height="67.5mm" version="1.1" style="shape-rendering:geometricPrecision; text-rendering:geometricPrecision; image-rendering:optimizeQuality; fill-rule:evenodd; clip-rule:evenodd"
viewBox="0 0 253.75 274.06"
 xmlns:xlink="http://www.w3.org/1999/xlink"
 xmlns:xodm="http://www.corel.com/coreldraw/odm/2003">
 <defs>
  <style type="text/css">
   <![CDATA[
    .str0 {stroke:#0B1D26;stroke-width:2.03;stroke-miterlimit:22.9256}
    .str1 {stroke:#FCD975;stroke-width:2.03;stroke-miterlimit:22.9256}
    .fil1 {fill:#0B1D26}
    .fil0 {fill:#74B8EC}
   ]]>
  </style>
 </defs>
 <g id="Слой_x0020_1">
  <metadata id="CorelCorpID_0Corel-Layer"/>
  <g id="_2355312283472">
   <path class="fil0 str0" d="M246.86 111.04c1.9,8.3 2.9,16.93 2.9,25.79 0,16.6 -3.51,32.4 -9.85,46.76 1.33,0.19 2.65,0.64 3.86,1.38l4.27 2.59c4.69,2.85 6.12,8.9 3.18,13.44l-10.7 16.52c-2.94,4.54 -9.19,5.93 -13.88,3.08l-4.27 -2.59c-1.24,-0.75 -2.25,-1.72 -3.01,-2.83 -4.64,5.14 -9.73,9.88 -15.21,14.18 1.12,0.78 2.1,1.8 2.83,3.03l2.52 4.22c2.77,4.64 1.11,10.64 -3.69,13.32l-17.44 9.75c-4.8,2.68 -10.98,1.08 -13.75,-3.57l-2.52 -4.22c-0.73,-1.23 -1.16,-2.56 -1.29,-3.89 -7.87,2.92 -16.14,5.08 -24.69,6.38 0.58,1.23 0.9,2.59 0.9,4.02l0 4.88c0,5.36 -4.53,9.75 -10.07,9.75l-20.14 0c-5.54,0 -10.07,-4.39 -10.07,-9.75l0 -4.88c0,-1.43 0.32,-2.79 0.9,-4.02 -8.56,-1.3 -16.82,-3.47 -24.69,-6.39 -0.14,1.34 -0.56,2.66 -1.29,3.89l-2.52 4.22c-2.77,4.64 -8.96,6.25 -13.75,3.57l-17.44 -9.75c-4.8,-2.68 -6.45,-8.68 -3.69,-13.32l2.52 -4.22c0.73,-1.23 1.71,-2.25 2.83,-3.03 -15.57,-12.21 -28,-28.04 -35.93,-46.16l19.83 -6.14c15.87,34.66 51.7,58.84 93.37,58.84 56.39,0 102.1,-44.27 102.1,-98.88 0,-6.79 -0.71,-13.41 -2.05,-19.81l19.94 -6.17z"/>
   <path class="fil1 str1" d="M146.27 19.3c8.52,1.31 16.74,3.47 24.58,6.38 0.17,-1.21 0.58,-2.41 1.25,-3.53l2.52 -4.22c2.77,-4.64 8.96,-6.25 13.75,-3.57l17.44 9.75c4.8,2.68 6.45,8.68 3.69,13.32l-2.52 4.22c-0.68,1.14 -1.56,2.09 -2.58,2.85 15.48,12.21 27.83,27.99 35.71,46.05l-19.98 6.18c-15.93,-34.53 -51.69,-58.59 -93.26,-58.59 -56.39,0 -102.1,44.27 -102.1,98.89 0,6.69 0.69,13.23 2,19.55l-19.86 6.15c-1.91,-8.34 -2.92,-17 -2.92,-25.89 0,-16.46 3.45,-32.14 9.7,-46.4 -1.28,-0.2 -2.54,-0.65 -3.7,-1.35l-4.27 -2.59c-4.69,-2.85 -6.12,-8.9 -3.18,-13.44l10.7 -16.53c2.94,-4.54 9.19,-5.93 13.88,-3.08l4.27 2.59c1.16,0.7 2.11,1.6 2.86,2.62 4.61,-5.12 9.67,-9.86 15.11,-14.15 -1.02,-0.75 -1.9,-1.71 -2.58,-2.85l-2.52 -4.22c-2.77,-4.64 -1.11,-10.64 3.69,-13.32l17.44 -9.75c4.8,-2.68 10.98,-1.08 13.75,3.57l2.52 4.22c0.67,1.12 1.08,2.32 1.25,3.53 7.84,-2.91 16.06,-5.07 24.58,-6.38 -0.48,-1.13 -0.74,-2.37 -0.74,-3.66l0 -4.88c0,-5.36 4.53,-9.75 10.07,-9.75l20.14 0c5.54,0 10.07,4.39 10.07,9.75l0 4.88c0,1.29 -0.26,2.53 -0.74,3.66z"/>
   <path class="fil0 str0" d="M145.67 88.28c1.7,0.28 3.39,0.65 5.08,1.1 7.46,2 14.13,5.5 19.81,10.12 0.25,-0.58 0.61,-1.13 1.09,-1.59l1.68 -1.63c1.85,-1.79 4.75,-1.72 6.43,0.17l6.12 6.86c1.68,1.89 1.55,4.9 -0.31,6.69l-1.68 1.63c-0.49,0.47 -1.05,0.82 -1.64,1.03 1.74,2.73 3.25,5.62 4.52,8.63 0.49,-0.42 1.06,-0.74 1.71,-0.92l2.2 -0.64c2.43,-0.7 4.92,0.78 5.54,3.28l2.25 9.11c0.62,2.51 -0.86,5.13 -3.28,5.83l-2.21 0.64c-0.64,0.19 -1.29,0.22 -1.91,0.12 0.35,3.94 0.31,7.96 -0.14,12.01 0.62,-0.12 1.27,-0.1 1.92,0.07l2.19 0.59c2.41,0.65 3.83,3.24 3.15,5.76l-2.46 9.17c-0.68,2.52 -3.2,4.06 -5.61,3.41l-2.19 -0.59c-0.64,-0.17 -1.21,-0.48 -1.7,-0.89 -1.63,3.74 -3.61,7.24 -5.88,10.47 0.58,0.22 1.13,0.57 1.59,1.06l1.59 1.66c1.75,1.82 1.72,4.83 -0.07,6.69l-6.51 6.77c-1.79,1.86 -4.69,1.89 -6.44,0.07l-1.59 -1.65c-0.46,-0.48 -0.8,-1.05 -1.02,-1.65 -6.61,5.03 -14.2,8.56 -22.25,10.27l0 -13.36c14.71,-3.95 27.14,-15.83 31.51,-32.14 6.4,-23.88 -6.92,-48.2 -29.75,-54.31 -0.59,-0.16 -1.17,-0.3 -1.76,-0.43l0 -13.41z"/>
   <path class="fil0 str0" d="M67.36 122.35c1.63,-3.72 3.6,-7.2 5.87,-10.42 -0.52,-0.22 -1.01,-0.55 -1.43,-0.99l-1.59 -1.65c-1.75,-1.82 -1.72,-4.83 0.07,-6.69l6.51 -6.77c1.79,-1.86 4.69,-1.89 6.44,-0.07l1.59 1.65c0.43,0.45 0.75,0.96 0.96,1.52 6.63,-5.01 14.24,-8.53 22.3,-10.21l0 13.44c-14.71,3.95 -27.14,15.83 -31.51,32.14 -6.4,23.88 6.92,48.2 29.75,54.31 0.59,0.16 1.17,0.3 1.76,0.43l0 13.39c-1.75,-0.29 -3.51,-0.66 -5.25,-1.13 -7.4,-1.98 -14.02,-5.44 -19.67,-10 -0.25,0.56 -0.6,1.08 -1.06,1.52l-1.68 1.63c-1.85,1.79 -4.75,1.72 -6.43,-0.17l-6.12 -6.86c-1.68,-1.89 -1.55,-4.9 0.31,-6.69l1.68 -1.63c0.46,-0.44 0.98,-0.77 1.53,-0.98 -1.74,-2.72 -3.25,-5.59 -4.51,-8.59 -0.46,0.37 -1,0.66 -1.59,0.83l-2.21 0.64c-2.43,0.7 -4.92,-0.78 -5.54,-3.28l-2.26 -9.11c-0.62,-2.51 0.86,-5.13 3.28,-5.83l2.21 -0.64c0.58,-0.17 1.17,-0.21 1.74,-0.14 -0.35,-3.92 -0.32,-7.93 0.13,-11.96 -0.57,0.08 -1.15,0.05 -1.74,-0.1l-2.19 -0.59c-2.41,-0.65 -3.83,-3.24 -3.16,-5.76l2.46 -9.17c0.68,-2.52 3.2,-4.06 5.61,-3.41l2.19 0.59c0.58,0.16 1.1,0.42 1.55,0.78z"/>
   <path class="fil1 str1" d="M72.85 75.63l0 -4.91c0,-4.05 3.32,-7.37 7.37,-7.37l44.2 0 4.91 0 44.21 0c4.05,0 7.37,3.32 7.37,7.37l0 4.91c0,4.05 -3.32,7.37 -7.37,7.37l-36.84 0 0 120.34c0,4.05 -3.32,7.37 -7.37,7.37l-4.91 0c-4.05,0 -7.37,-3.32 -7.37,-7.37l0 -120.34 -36.84 0c-4.05,0 -7.37,-3.32 -7.37,-7.37z"/>
  </g>
 </g>
</svg>
