<?xml version="1.0" standalone="no"?>
<!DOCTYPE svg PUBLIC "-//W3C//DTD SVG 20010904//EN"
 "http://www.w3.org/TR/2001/REC-SVG-20010904/DTD/svg10.dtd">
<svg version="1.0" xmlns="http://www.w3.org/2000/svg"
 width="1024.000000pt" height="1024.000000pt" viewBox="0 0 1024.000000 1024.000000"
 preserveAspectRatio="xMidYMid meet">
<metadata>
Created by potrace 1.14, written by Peter Selinger 2001-2017
</metadata>
<g transform="translate(0.000000,1024.000000) scale(0.100000,-0.100000)"
fill="#000000" stroke="none">
<path d="M4655 10116 c-95 -30 -162 -88 -204 -176 -25 -52 -26 -63 -26 -210 0
-138 3 -161 23 -209 13 -29 21 -55 19 -58 -2 -2 -58 -13 -123 -24 -252 -42
-555 -120 -768 -198 -72 -27 -132 -47 -134 -46 -1 1 -7 28 -13 61 -7 40 -30
93 -72 169 -111 197 -202 261 -358 253 -73 -4 -83 -8 -215 -80 -282 -154 -566
-316 -610 -346 -48 -34 -98 -105 -114 -162 -14 -48 -12 -128 4 -172 30 -83
138 -248 197 -301 l59 -53 -117 -94 c-65 -52 -212 -188 -327 -302 l-209 -209
-49 55 c-52 59 -212 164 -301 198 -110 42 -260 8 -340 -77 -65 -69 -455 -683
-473 -744 -29 -96 -3 -205 66 -284 31 -36 215 -154 282 -181 18 -7 54 -17 80
-20 27 -4 48 -11 48 -15 0 -4 -18 -49 -40 -99 -232 -535 -356 -1191 -336
-1782 7 -216 24 -390 61 -612 14 -81 25 -150 25 -153 0 -12 44 -1 229 56 108
34 241 75 296 91 55 17 103 34 108 37 4 4 -2 65 -13 137 -34 226 -43 383 -37
644 11 460 84 827 250 1250 364 925 1116 1688 2058 2085 358 151 731 246 1146
290 177 20 564 22 738 5 764 -73 1440 -332 2025 -775 448 -340 845 -811 1076
-1277 27 -54 53 -98 58 -98 5 0 126 36 270 81 144 45 282 88 309 95 26 8 47
21 47 28 0 19 -88 196 -166 333 -271 479 -654 928 -1092 1278 l-73 58 59 53
c62 55 169 221 199 307 34 95 -8 242 -87 309 -34 30 -544 321 -714 408 -63 32
-76 35 -155 35 -148 -1 -220 -50 -320 -218 -70 -119 -86 -156 -95 -218 l-7
-46 -187 63 c-215 73 -478 142 -670 175 -121 21 -135 25 -146 48 -11 21 -11
30 2 60 12 28 16 72 16 191 0 138 -2 160 -21 202 -30 66 -104 141 -166 169
-52 24 -53 24 -492 26 -336 2 -449 -1 -480 -11z"/>
<path d="M3279 7903 c-106 -35 -196 -138 -220 -251 -6 -33 -10 -112 -7 -191 3
-124 6 -141 31 -193 34 -69 118 -149 184 -174 45 -18 95 -19 740 -22 l693 -3
2 -2257 3 -2257 27 -50 c32 -62 103 -129 166 -158 43 -20 64 -22 222 -22 158
0 179 2 222 22 63 29 134 96 166 158 l27 50 3 2257 2 2257 693 3 c645 3 695 4
740 22 66 25 150 105 184 174 27 56 28 61 28 227 l0 170 -33 67 c-36 73 -86
123 -161 160 l-46 23 -1810 2 c-1611 2 -1815 0 -1856 -14z m3666 -122 c49 -23
89 -64 109 -113 20 -47 22 -270 4 -332 -16 -53 -81 -118 -134 -134 -31 -9
-222 -12 -768 -12 l-726 0 -2 -2297 -3 -2298 -25 -45 c-14 -24 -45 -58 -68
-75 l-44 -30 -167 0 c-166 0 -168 0 -209 27 -22 15 -54 49 -69 75 l-28 48 -3
2298 -2 2297 -726 0 c-546 0 -737 3 -768 12 -53 16 -118 81 -134 134 -15 50
-16 265 -1 317 13 49 63 105 114 128 38 18 120 19 1825 19 1716 0 1787 -1
1825 -19z"/>
<path d="M5874 6856 c-2 -6 -3 -94 -2 -194 l3 -183 116 -39 c529 -177 921
-611 1064 -1177 62 -247 61 -583 -1 -838 -83 -337 -247 -621 -500 -865 -170
-163 -366 -287 -581 -366 l-103 -38 0 -188 c0 -220 -13 -205 135 -158 200 65
402 169 578 298 48 35 89 63 91 61 1 -2 10 -25 20 -50 11 -30 36 -65 71 -98
46 -43 60 -51 92 -51 21 1 48 6 59 13 39 22 293 295 300 322 13 52 -3 96 -53
148 -26 27 -67 58 -91 69 -42 19 -43 20 -29 42 101 154 135 211 193 331 38 77
70 142 72 144 1 2 19 -9 40 -26 36 -29 128 -63 172 -63 31 0 74 28 93 59 24
40 107 362 107 413 0 64 -26 93 -107 118 -48 15 -79 18 -120 14 l-54 -7 8 29
c4 16 8 145 8 287 l0 257 42 -6 c28 -4 66 0 108 11 84 23 125 65 125 126 0 34
-42 227 -80 370 -15 56 -54 89 -105 89 -61 0 -132 -24 -177 -60 -22 -18 -40
-30 -42 -29 -1 2 -13 29 -25 59 -39 91 -109 226 -157 301 -25 39 -44 72 -42
73 2 2 19 9 38 16 55 21 136 96 154 141 27 66 12 96 -129 254 -69 77 -135 145
-148 152 -70 39 -179 -29 -231 -145 l-19 -41 -81 63 c-230 179 -494 305 -764
365 -32 7 -45 6 -48 -3z"/>
<path d="M4320 6840 c-14 -4 -63 -20 -110 -35 -176 -57 -378 -160 -545 -280
-44 -32 -85 -59 -91 -62 -6 -2 -19 16 -28 40 -10 28 -38 65 -71 96 -46 43 -60
51 -92 51 -21 -1 -47 -6 -59 -13 -28 -16 -278 -276 -293 -304 -6 -12 -11 -39
-11 -61 0 -53 63 -133 131 -168 27 -13 49 -27 49 -30 0 -2 -28 -46 -62 -97
-34 -51 -94 -152 -133 -226 -38 -74 -77 -139 -85 -144 -11 -7 -26 -2 -52 15
-20 14 -63 31 -96 38 -52 11 -64 10 -95 -5 -48 -23 -66 -63 -121 -275 -51
-194 -51 -229 0 -269 40 -31 131 -54 187 -47 l48 7 -8 -68 c-4 -37 -8 -166 -7
-285 l1 -217 -43 6 c-52 7 -161 -27 -193 -61 -43 -46 -43 -72 4 -271 24 -101
51 -198 60 -216 10 -18 31 -37 53 -46 32 -13 42 -13 99 2 35 10 81 30 103 46
22 16 42 29 45 29 4 0 13 -17 21 -37 29 -70 116 -237 160 -309 24 -39 44 -73
44 -76 0 -3 -18 -13 -39 -21 -59 -24 -146 -114 -155 -159 -10 -56 9 -88 143
-238 129 -143 149 -159 196 -160 52 0 132 66 171 143 13 26 27 47 30 47 3 0
42 -29 87 -64 205 -160 470 -287 715 -344 45 -11 84 -17 87 -14 3 3 5 90 5
193 l0 187 -96 31 c-433 140 -769 435 -969 853 -66 139 -100 237 -131 387 -75
363 -38 730 107 1069 97 226 221 404 405 582 170 164 366 287 582 366 l102 37
-2 190 c-2 116 -7 191 -13 193 -5 1 -21 -1 -35 -6z"/>
<path d="M9606 6172 c-12 -20 -79 -43 -444 -156 -206 -63 -377 -117 -380 -120
-3 -4 4 -59 16 -124 110 -598 70 -1189 -117 -1760 -228 -693 -673 -1306 -1282
-1764 -424 -319 -946 -556 -1469 -667 -462 -97 -991 -109 -1455 -30 -645 109
-1242 376 -1752 785 -139 112 -387 357 -510 504 -187 223 -322 429 -461 700
-44 85 -83 154 -88 154 -17 -3 -828 -255 -832 -259 -7 -7 137 -306 211 -438
270 -484 643 -931 1075 -1289 l33 -28 -30 -37 c-51 -64 -158 -261 -171 -314
-20 -84 -9 -194 28 -273 45 -96 111 -156 268 -243 71 -39 235 -131 364 -203
129 -72 259 -138 289 -147 38 -11 79 -14 140 -11 201 11 313 104 452 376 33
62 47 81 59 76 111 -45 534 -158 694 -185 l73 -12 -5 -148 c-7 -225 18 -317
116 -421 55 -59 111 -94 193 -119 56 -17 98 -19 499 -19 401 0 443 2 499 19
82 26 138 60 195 120 94 102 121 201 113 422 l-5 146 77 12 c120 20 454 106
586 151 65 22 120 40 122 40 1 0 11 -21 22 -46 28 -63 117 -210 159 -262 99
-124 301 -184 458 -137 27 8 213 106 414 219 405 226 444 255 501 371 38 77
50 188 29 274 -12 53 -120 249 -172 314 l-30 39 38 31 c88 72 225 199 327 301
l108 109 27 -26 c44 -41 262 -166 321 -184 38 -11 81 -14 146 -11 82 3 101 8
166 40 44 22 93 56 120 85 68 70 467 693 495 773 55 153 3 344 -120 444 -52
43 -253 165 -283 172 -13 4 -23 8 -23 11 0 3 27 76 59 162 294 779 358 1621
185 2451 -26 123 -36 151 -48 132z m-31 -367 c13 -82 30 -202 37 -265 16 -151
15 -672 -1 -825 -43 -409 -158 -864 -312 -1229 -32 -76 -56 -142 -53 -147 3
-5 15 -9 27 -9 73 0 252 -87 362 -175 90 -73 129 -214 88 -320 -23 -58 -419
-673 -466 -724 -18 -18 -59 -46 -92 -62 -80 -39 -184 -41 -260 -6 -139 65
-279 170 -315 236 -6 12 -14 21 -19 21 -4 0 -102 -94 -217 -208 -115 -114
-253 -244 -308 -287 -54 -44 -110 -90 -125 -103 l-26 -22 25 -20 c14 -11 42
-34 62 -50 41 -34 140 -186 175 -270 26 -64 29 -126 8 -197 -26 -89 -68 -130
-216 -214 -362 -207 -594 -332 -636 -345 -94 -28 -204 -10 -282 46 -76 56
-194 259 -211 365 -6 38 -13 71 -15 73 -2 3 -55 -14 -117 -36 -245 -89 -487
-153 -762 -201 -92 -16 -170 -32 -173 -35 -3 -2 7 -34 21 -70 24 -59 26 -76
26 -213 0 -173 -11 -219 -70 -285 -21 -24 -62 -57 -91 -73 l-54 -30 -465 0
-465 0 -50 27 c-64 34 -118 90 -147 153 -21 45 -23 64 -23 205 0 148 2 158 28
219 16 35 26 65 23 68 -3 3 -91 20 -196 39 -268 48 -529 117 -753 200 -54 20
-100 34 -103 31 -3 -2 -9 -33 -14 -67 -10 -69 -35 -124 -112 -249 -81 -130
-166 -181 -297 -181 -74 1 -123 22 -376 164 -115 65 -264 148 -330 184 -65 37
-138 85 -161 108 -58 57 -87 138 -81 224 4 69 18 101 95 230 52 88 81 121 140
161 23 17 42 33 42 37 0 5 -51 49 -112 99 -478 385 -857 851 -1148 1406 -80
154 -92 187 -66 187 7 0 105 29 217 64 304 95 381 118 383 114 1 -2 10 -21 20
-43 61 -137 235 -419 364 -589 213 -284 494 -561 779 -773 545 -403 1197 -660
1888 -745 149 -18 761 -18 905 0 808 102 1524 415 2115 925 745 642 1210 1550
1285 2511 21 265 9 587 -30 834 -11 67 -20 128 -20 136 0 9 60 31 173 65 94
28 233 71 307 95 l135 44 7 -27 c4 -14 19 -93 33 -176z"/>
</g>
</svg>
