<?xml version="1.0" standalone="no"?>
<!DOCTYPE svg PUBLIC "-//W3C//DTD SVG 20010904//EN"
 "http://www.w3.org/TR/2001/REC-SVG-20010904/DTD/svg10.dtd">
<svg version="1.0" xmlns="http://www.w3.org/2000/svg"
 width="1020.000000pt" height="1020.000000pt" viewBox="0 0 1020.000000 1020.000000"
 preserveAspectRatio="xMidYMid meet">
<metadata>
Created by potrace 1.14, written by Peter Selinger 2001-2017
</metadata>
<g transform="translate(0.000000,1020.000000) scale(0.100000,-0.100000)"
fill="#000000" stroke="none">
<path d="M4505 10181 c-104 -48 -144 -120 -146 -262 -1 -52 0 -98 1 -104 1 -5
1 -14 0 -20 -1 -5 -2 -35 -1 -65 1 -30 2 -62 2 -70 -1 -8 -1 -39 -2 -68 -1
-28 -4 -54 -8 -57 -4 -2 -30 -7 -57 -11 -27 -3 -53 -8 -57 -11 -4 -2 -20 -6
-35 -8 -38 -5 -163 -33 -249 -57 -40 -10 -80 -21 -90 -23 -10 -2 -54 -15 -98
-30 -44 -14 -87 -28 -95 -30 -8 -2 -46 -15 -84 -29 -66 -25 -70 -26 -80 -9 -6
10 -16 27 -23 38 -7 11 -18 31 -25 45 -7 14 -15 27 -18 30 -3 3 -11 16 -18 29
-8 13 -22 39 -33 57 -10 19 -28 51 -40 71 -52 92 -90 142 -122 162 -45 28
-125 52 -133 40 -3 -5 -9 -7 -13 -5 -10 6 -94 -13 -101 -23 -3 -4 -18 -15 -35
-23 -63 -33 -150 -82 -155 -88 -3 -3 -14 -10 -26 -15 -16 -8 -261 -149 -488
-280 -19 -11 -58 -33 -88 -49 -90 -49 -136 -85 -165 -129 -34 -51 -36 -57 -36
-128 0 -43 6 -70 28 -113 15 -31 32 -56 37 -56 4 0 8 -8 8 -17 0 -9 6 -24 13
-32 19 -22 97 -161 97 -172 0 -5 3 -9 8 -9 4 0 13 -15 21 -32 8 -18 19 -36 25
-41 7 -4 -9 -26 -43 -57 -29 -28 -55 -50 -57 -50 -14 0 -335 -318 -414 -410
-25 -29 -56 -66 -71 -83 l-25 -30 -45 25 c-24 14 -68 39 -97 57 -29 17 -54 31
-56 31 -2 0 -34 18 -70 40 -36 22 -70 40 -76 40 -5 0 -10 4 -10 9 0 12 -93 43
-133 44 -38 1 -127 -24 -127 -35 0 -4 -5 -8 -10 -8 -10 0 -60 -44 -60 -53 0
-2 -31 -55 -68 -118 -38 -63 -71 -121 -75 -129 -4 -8 -16 -29 -26 -47 -75
-123 -201 -344 -201 -353 0 -5 -4 -10 -10 -10 -5 0 -10 -7 -10 -15 0 -8 -4
-15 -8 -15 -4 0 -13 -12 -19 -27 -12 -29 -54 -104 -63 -113 -3 -3 -19 -30 -35
-60 -54 -100 -38 -224 39 -293 25 -22 159 -102 165 -98 2 1 7 -1 10 -6 3 -5
26 -21 51 -35 90 -52 126 -72 152 -85 15 -8 30 -17 32 -21 4 -7 -74 -248 -88
-271 -4 -6 -5 -11 -2 -11 3 0 1 -12 -5 -27 -6 -16 -13 -39 -15 -53 -3 -14 -9
-36 -14 -50 -5 -14 -11 -34 -13 -45 -2 -11 -9 -38 -15 -60 -6 -22 -13 -51 -16
-65 -3 -14 -12 -61 -21 -104 -21 -110 -27 -141 -40 -228 -2 -18 -7 -46 -9 -63
-3 -16 -8 -57 -11 -90 -4 -33 -8 -76 -11 -95 -23 -198 -23 -641 1 -840 2 -19
6 -60 10 -90 10 -99 16 -145 21 -170 3 -14 8 -36 10 -50 6 -39 16 -93 21 -120
2 -14 6 -36 8 -50 2 -14 4 -25 5 -25 1 0 3 -9 5 -20 2 -11 7 -35 10 -52 4 -23
11 -33 25 -33 10 0 20 5 22 11 2 5 10 11 18 13 8 1 78 33 155 71 77 38 142 69
145 69 3 1 61 29 130 63 69 33 193 94 275 133 149 72 189 96 180 110 -5 7 -14
58 -20 105 -2 17 -6 50 -9 75 -3 25 -9 70 -12 100 -11 98 -5 685 6 685 1 0 3
14 4 30 5 46 16 137 22 165 2 14 7 36 9 50 3 14 8 40 11 59 3 19 10 44 14 57
5 12 6 24 4 27 -3 3 -1 14 4 24 6 10 12 32 15 48 3 17 10 45 16 64 6 19 8 38
5 42 -3 5 0 9 7 9 7 0 10 3 6 6 -3 4 0 22 8 40 8 19 15 38 16 42 2 10 5 19 25
82 15 49 57 159 87 230 6 14 11 27 12 30 0 3 15 34 31 70 17 36 32 68 33 72 1
4 17 35 36 69 19 33 35 63 35 65 0 2 18 33 40 69 22 36 40 70 40 75 0 6 5 10
10 10 6 0 10 5 10 10 0 10 48 89 60 100 3 3 27 37 52 75 26 39 58 83 72 98 14
15 22 27 18 27 -4 0 -2 4 3 8 6 4 44 48 85 97 67 82 320 341 380 390 14 11 48
38 75 60 28 22 52 42 55 46 3 3 23 18 45 34 22 17 42 32 45 35 3 3 25 19 50
35 25 16 47 32 50 35 14 16 236 149 338 203 125 66 390 184 432 193 3 0 14 4
25 8 11 4 31 12 45 16 14 4 34 11 45 15 11 3 21 6 22 6 2 0 22 7 45 15 47 16
252 69 308 79 19 4 71 13 115 21 95 18 156 26 207 28 21 0 38 3 38 6 0 20 545
16 730 -5 19 -2 55 -6 80 -9 25 -3 56 -8 70 -11 14 -3 43 -8 64 -10 22 -3 60
-10 85 -16 25 -6 57 -13 71 -15 25 -5 89 -20 123 -29 9 -3 26 -7 37 -9 33 -8
194 -58 205 -65 6 -3 16 -6 22 -7 16 -3 144 -51 203 -77 25 -10 61 -26 80 -34
131 -57 315 -157 442 -239 37 -24 72 -44 78 -44 5 0 10 -3 10 -8 0 -4 18 -18
40 -32 22 -14 40 -28 40 -32 0 -5 4 -8 10 -8 5 0 18 -6 27 -14 127 -102 192
-154 213 -171 13 -11 91 -85 171 -165 l147 -146 97 48 c54 26 103 48 111 48 7
0 14 4 16 8 2 7 105 60 128 67 3 1 86 41 185 89 99 49 235 115 303 147 l123
59 -66 80 c-121 146 -327 359 -455 470 -35 30 -81 71 -102 90 l-38 35 60 102
c33 56 60 107 60 113 0 5 4 10 9 10 5 0 11 8 15 18 7 21 52 100 66 117 18 22
37 101 34 141 -4 51 -35 123 -65 150 -29 26 -156 104 -169 104 -6 0 -10 5 -10
12 0 6 -3 8 -7 5 -3 -4 -13 -1 -22 6 -9 8 -36 25 -61 38 -25 13 -47 26 -50 29
-3 3 -31 18 -62 35 -32 16 -58 33 -58 37 0 4 -5 8 -11 8 -6 0 -70 34 -142 77
-136 78 -151 87 -252 143 -33 19 -62 37 -65 41 -13 18 -106 39 -149 35 -67 -7
-75 -10 -107 -30 -33 -22 -88 -76 -77 -76 5 0 4 -4 -2 -8 -10 -7 -21 -24 -61
-97 -12 -22 -44 -78 -71 -125 -27 -47 -56 -96 -64 -110 -8 -14 -17 -27 -21
-30 -6 -4 -225 62 -358 108 -8 3 -21 4 -27 3 -7 -1 -13 2 -13 6 0 4 -14 9 -31
10 -17 1 -37 7 -44 13 -6 5 -14 8 -16 5 -3 -2 -21 0 -40 5 -70 19 -272 60
-278 55 -15 -9 -35 15 -37 47 -1 18 -3 33 -4 33 -1 0 -3 12 -4 28 -1 15 1 27
4 27 7 0 5 114 -3 127 -4 5 -3 13 0 17 9 8 12 46 4 46 -3 0 -6 11 -6 25 0 14
3 25 6 25 6 0 4 43 -6 105 -9 62 -55 128 -112 162 l-48 28 -565 2 c-533 3
-567 2 -605 -16z"/>
<path d="M5344 7610 c-45 -23 -77 -71 -89 -135 -5 -22 -10 -47 -12 -55 -2 -8
-5 -20 -5 -27 -1 -8 -26 -12 -77 -12 -42 0 -117 -3 -168 -6 l-91 -6 -17 58
c-52 179 -111 202 -340 129 -66 -21 -124 -39 -130 -41 -5 -1 -17 -5 -25 -8 -8
-3 -74 -24 -146 -47 -73 -22 -140 -48 -151 -58 -57 -50 -70 -109 -42 -196 24
-79 25 -79 -13 -95 -18 -8 -84 -45 -147 -83 -127 -77 -108 -76 -185 -6 -16 14
-46 30 -65 34 -91 19 -116 4 -268 -162 -25 -28 -222 -241 -248 -268 -74 -79
-72 -171 6 -246 l31 -29 -57 -92 c-32 -51 -73 -124 -92 -162 -33 -65 -36 -68
-61 -61 -15 4 -40 6 -57 4 -16 -1 -36 -2 -42 -3 -7 0 -13 -4 -13 -9 0 -4 -6
-8 -13 -8 -30 0 -66 -60 -88 -142 -11 -46 -22 -94 -24 -108 -2 -14 -4 -25 -5
-25 -1 0 -3 -8 -5 -19 -2 -10 -9 -39 -15 -65 -6 -25 -12 -55 -14 -66 -3 -11
-9 -40 -16 -65 -6 -25 -13 -56 -14 -70 -2 -14 -8 -44 -14 -68 -19 -81 22 -157
101 -187 l42 -16 2 -132 c1 -125 8 -211 19 -249 4 -13 -6 -23 -38 -39 -82 -39
-115 -123 -83 -209 9 -25 18 -52 20 -62 2 -9 29 -93 60 -188 31 -94 58 -177
59 -183 2 -7 8 -25 14 -40 7 -16 12 -32 12 -37 0 -15 52 -70 81 -85 34 -18 78
-19 130 -4 32 10 40 9 54 -5 9 -9 14 -16 11 -16 -6 0 15 -28 42 -55 6 -8 12
-17 12 -22 0 -4 25 -39 55 -77 30 -38 55 -73 55 -79 0 -6 -13 -25 -29 -42 -53
-54 -69 -123 -43 -185 10 -24 41 -57 147 -153 28 -25 78 -71 112 -104 200
-186 239 -213 300 -206 50 5 70 18 135 84 l57 59 33 -18 c18 -9 36 -21 39 -25
3 -5 8 -8 10 -7 4 1 134 -55 161 -70 10 -6 24 -10 33 -10 11 0 14 -10 12 -40
-1 -22 -5 -40 -8 -40 -3 0 -6 -6 -7 -12 -1 -7 -4 -34 -8 -59 -8 -58 7 -107 44
-142 27 -26 157 -66 266 -82 21 -3 41 -7 45 -10 4 -2 50 -13 102 -24 52 -11
124 -27 161 -35 37 -8 80 -13 95 -10 59 11 122 69 127 119 1 6 4 19 8 30 4 11
12 45 18 75 l10 55 110 1 c60 1 130 4 155 7 43 6 47 4 56 -21 6 -15 12 -31 13
-37 11 -55 44 -129 68 -154 55 -56 110 -59 237 -16 38 13 72 21 75 17 3 -3 6
1 6 8 0 7 3 11 6 7 3 -3 18 -1 33 5 14 5 33 11 41 13 52 11 307 98 327 110 55
36 78 114 56 186 -8 24 -15 49 -17 56 -1 7 -5 16 -9 19 -4 4 -7 18 -7 30 0 17
10 28 38 40 20 10 81 44 135 76 55 32 102 58 106 58 4 0 29 -20 55 -45 27 -25
53 -45 57 -45 5 0 9 -5 9 -11 0 -5 5 -7 10 -4 6 3 10 3 10 -2 0 -15 90 -14
123 2 18 8 70 55 114 103 44 48 96 103 114 123 19 20 70 76 114 124 44 48 85
93 91 99 28 30 39 105 21 149 -8 19 -33 52 -55 74 l-40 39 36 60 c20 32 41 64
47 70 5 6 30 50 55 97 42 80 47 86 70 79 55 -15 116 -8 153 18 46 31 72 91 92
210 3 19 11 53 16 75 13 46 17 67 25 115 3 19 10 40 15 46 5 6 7 13 4 15 -2 3
5 41 15 84 25 103 25 148 -1 195 -20 35 -86 80 -118 80 -8 0 -11 33 -10 108 2
111 -6 234 -20 322 -8 48 -7 52 15 61 37 14 67 28 84 38 8 5 44 23 80 39 36
17 101 47 145 68 44 21 82 38 85 39 3 0 28 13 57 28 29 15 58 27 64 27 7 0 20
6 28 13 9 7 45 26 81 42 36 15 95 43 132 60 37 18 69 30 72 27 3 -3 6 -1 6 5
0 18 75 36 76 18 0 -5 3 -23 7 -40 4 -16 9 -43 12 -60 2 -16 11 -68 19 -115
14 -81 20 -122 33 -235 15 -122 7 -622 -11 -735 -2 -14 -7 -46 -10 -71 -9 -63
-15 -100 -22 -129 -3 -14 -8 -38 -10 -55 -2 -16 -7 -43 -11 -60 -4 -16 -6 -33
-5 -37 1 -5 -3 -8 -9 -8 -5 0 -8 -4 -5 -9 13 -20 -89 -349 -160 -519 -25 -59
-46 -111 -47 -117 -1 -5 -4 -12 -7 -15 -3 -3 -31 -57 -63 -120 -32 -63 -65
-129 -75 -145 -43 -76 -117 -191 -126 -197 -6 -4 -7 -8 -3 -8 4 0 -7 -20 -25
-44 -18 -24 -40 -54 -48 -66 -17 -24 -26 -36 -100 -130 -115 -146 -322 -362
-449 -470 -60 -50 -236 -187 -271 -210 -12 -8 -33 -23 -45 -32 -13 -10 -28
-18 -33 -18 -6 0 -12 -4 -14 -9 -4 -12 -220 -141 -235 -141 -7 0 -13 -4 -13
-8 0 -7 -43 -33 -60 -37 -3 0 -50 -23 -105 -50 -55 -27 -104 -50 -110 -51 -5
-1 -46 -18 -91 -37 -111 -48 -342 -122 -474 -152 -126 -29 -204 -45 -245 -50
-27 -4 -57 -8 -65 -10 -8 -2 -35 -7 -60 -9 -25 -3 -66 -8 -91 -11 -138 -16
-410 -24 -491 -14 -30 3 -49 1 -52 -5 -3 -7 -7 -8 -13 -1 -4 6 -19 11 -33 11
-59 3 -197 15 -220 18 -14 3 -43 7 -65 10 -22 3 -51 8 -65 10 -14 3 -61 12
-105 20 -94 17 -183 39 -279 67 -38 11 -76 22 -85 24 -19 4 -173 58 -221 78
-68 27 -75 30 -80 32 -49 17 -339 161 -397 198 -24 15 -47 27 -53 27 -5 0 -10
5 -10 10 0 6 -5 10 -10 10 -12 0 -94 52 -98 63 -2 4 -8 7 -14 7 -11 0 -81 51
-86 63 -2 4 -8 7 -14 7 -6 0 -32 18 -58 40 -26 22 -52 40 -58 40 -6 0 -12 3
-14 8 -1 4 -32 32 -68 62 -109 93 -130 112 -229 211 -102 101 -166 170 -218
235 -72 89 -120 151 -143 184 -14 19 -32 44 -42 54 -10 11 -18 25 -18 30 0 6
-11 24 -25 39 -14 15 -22 27 -18 27 4 0 3 4 -2 8 -16 11 -117 183 -181 309
l-56 111 -67 -33 c-36 -18 -142 -70 -236 -115 -93 -45 -253 -123 -355 -173
-102 -49 -191 -90 -197 -90 -7 0 -13 -4 -13 -9 0 -4 -6 -8 -14 -8 -37 0 -36
-26 5 -111 22 -46 45 -93 51 -104 6 -11 25 -45 41 -75 16 -30 37 -66 45 -80 9
-14 17 -27 17 -30 6 -33 294 -458 317 -468 5 -2 8 -8 8 -14 0 -5 6 -15 13 -22
6 -7 21 -25 32 -40 11 -15 29 -38 40 -50 11 -13 40 -48 65 -77 147 -175 474
-495 562 -550 10 -7 -4 -34 -132 -254 -48 -83 -92 -166 -98 -186 -11 -41 -6
-127 8 -144 5 -6 7 -15 3 -18 -3 -4 -1 -7 5 -7 7 0 12 -6 12 -14 0 -16 65 -75
107 -97 15 -7 30 -16 33 -19 3 -3 16 -11 30 -17 14 -7 48 -25 75 -41 215 -125
298 -172 306 -172 5 0 9 -4 9 -10 0 -5 4 -10 10 -10 5 0 33 -14 62 -31 58 -35
98 -58 156 -90 20 -12 76 -43 123 -70 47 -28 101 -51 120 -53 19 -2 39 -5 44
-6 6 -1 13 -1 18 0 4 1 15 3 25 5 45 5 152 73 152 96 0 5 12 28 28 52 15 23
43 70 62 103 19 34 57 100 84 148 27 47 56 86 63 86 7 0 13 -5 13 -10 0 -6 3
-9 8 -8 4 1 63 -17 132 -39 105 -35 167 -54 225 -69 6 -1 35 -9 65 -17 47 -13
175 -42 273 -61 15 -3 39 -9 55 -12 15 -3 32 -7 37 -8 24 -4 35 -18 27 -34 -9
-21 -9 -83 2 -100 4 -6 4 -17 0 -24 -10 -16 -12 -78 -2 -84 4 -3 4 -15 0 -27
-9 -26 -9 -88 0 -103 4 -5 3 -16 -1 -23 -14 -21 7 -113 36 -160 17 -27 49 -58
77 -76 l49 -30 566 -2 c551 -2 567 -2 611 18 48 22 115 88 123 123 3 11 10 38
15 59 6 20 7 39 3 41 -6 4 -6 61 -1 61 1 0 3 24 3 53 1 28 -1 52 -4 52 -4 0
-3 16 1 35 4 20 4 38 -1 41 -5 3 -5 13 1 25 8 13 7 19 0 19 -6 0 -8 5 -4 11 4
7 7 37 8 68 l1 56 40 7 c22 4 56 10 75 13 19 3 43 8 52 11 10 3 28 7 40 10 21
4 43 8 86 18 9 2 55 14 102 26 47 12 92 24 100 25 8 2 15 4 15 5 0 1 7 3 15 5
8 1 74 22 145 46 72 24 132 43 135 44 3 0 11 4 18 9 7 4 14 6 16 5 27 -39 66
-109 66 -117 0 -7 3 -12 8 -12 4 0 13 -15 21 -33 8 -17 17 -34 20 -37 3 -3 12
-16 20 -30 8 -14 33 -56 54 -95 37 -65 114 -151 125 -140 3 3 11 0 18 -6 12
-9 50 -17 99 -20 24 -1 68 13 117 39 41 22 451 257 528 303 66 39 313 179 316
179 3 0 10 5 17 10 7 6 24 19 40 31 46 34 79 102 79 162 1 75 -8 104 -53 175
-21 35 -39 65 -39 67 0 2 -20 38 -45 79 -25 42 -45 81 -45 86 0 6 -4 10 -10
10 -5 0 -10 6 -10 14 0 7 -7 19 -15 26 -8 7 -13 16 -10 20 3 5 -1 11 -7 13
-14 6 9 30 121 127 76 66 309 297 368 366 23 27 60 69 81 93 l39 44 34 -19
c19 -11 36 -21 39 -24 3 -3 21 -13 40 -22 19 -10 42 -22 50 -28 78 -50 223
-130 253 -140 111 -36 235 15 288 118 8 15 16 29 19 32 3 3 10 14 16 25 35 64
72 129 167 293 59 100 114 194 123 207 9 14 12 25 8 25 -5 0 -4 4 2 8 11 7 62
91 117 192 16 30 35 62 42 70 33 41 43 132 21 197 -17 49 -65 113 -85 113 -6
0 -11 5 -11 10 0 6 -4 10 -9 10 -8 0 -151 80 -161 90 -3 3 -21 14 -40 25 -19
10 -53 29 -75 42 -22 12 -51 28 -65 35 -14 7 -27 13 -29 14 -1 2 14 49 34 106
32 90 109 347 121 403 2 11 6 30 8 43 3 13 7 31 10 40 3 9 7 28 10 42 3 14 7
34 9 45 2 11 7 36 11 55 3 19 8 46 11 60 3 14 7 42 10 62 2 21 6 46 9 55 3 10
8 41 11 68 3 28 7 70 10 95 28 230 37 584 21 790 -10 130 -15 191 -21 238 -3
23 -7 63 -11 90 -5 46 -15 103 -36 211 -5 30 -12 64 -14 77 -10 58 -13 74 -34
154 -12 47 -23 95 -26 107 -2 12 -9 34 -14 49 -6 15 -8 29 -5 32 2 3 0 11 -5
18 -6 6 -13 23 -15 35 -8 42 -99 304 -108 310 -5 3 -8 8 -7 10 4 12 -75 203
-120 292 -11 22 -20 45 -20 53 0 8 -4 14 -9 14 -4 0 -16 20 -25 45 -10 25 -21
47 -25 50 -5 2 -30 -6 -57 -19 -27 -13 -83 -40 -125 -60 -42 -20 -81 -36 -88
-36 -6 0 -11 -4 -11 -10 0 -5 -8 -10 -19 -10 -10 0 -24 -7 -31 -15 -7 -8 -18
-15 -25 -15 -16 0 -77 -31 -86 -43 -3 -5 -9 -8 -13 -7 -4 0 -50 -20 -104 -46
-97 -47 -181 -85 -224 -104 -13 -5 -30 -14 -38 -19 -14 -9 -149 -73 -160 -76
-10 -3 -117 -54 -255 -120 -77 -36 -162 -77 -190 -90 -27 -12 -84 -39 -125
-58 -239 -113 -293 -137 -301 -137 -5 0 -9 -4 -9 -8 0 -5 -6 -9 -12 -9 -7 0
-33 -10 -57 -21 -25 -12 -51 -22 -58 -22 -7 0 -13 -4 -13 -9 0 -5 -10 -12 -22
-16 -13 -4 -25 -8 -28 -9 -6 -2 -86 -41 -285 -137 -82 -40 -152 -73 -155 -74
-3 -1 -39 -17 -80 -37 -252 -120 -360 -170 -370 -173 -15 -3 -89 -56 -113 -81
-30 -30 -63 -83 -59 -96 1 -5 -2 -8 -6 -8 -5 0 -9 -6 -10 -12 0 -7 -3 -23 -5
-34 -9 -38 -10 -108 -2 -144 8 -36 26 -76 151 -338 41 -85 74 -157 74 -162 0
-4 6 -13 14 -19 11 -9 41 1 139 48 70 33 148 70 174 82 26 12 104 49 173 82
69 33 131 60 138 60 6 0 12 3 12 7 0 4 22 17 50 28 46 19 51 20 58 4 15 -32 1
-275 -23 -397 -15 -78 -49 -196 -75 -262 -15 -40 -25 -73 -21 -73 3 0 1 -4 -4
-8 -6 -4 -19 -27 -30 -52 -26 -59 -71 -138 -112 -197 -13 -17 -23 -34 -23 -38
0 -3 -4 -11 -10 -18 -5 -7 -37 -46 -71 -87 -67 -82 -190 -205 -259 -260 -25
-19 -50 -39 -57 -45 -7 -5 -19 -16 -27 -22 -8 -7 -18 -13 -21 -13 -3 0 -32
-17 -63 -39 -229 -155 -589 -272 -882 -286 -41 -2 -77 -5 -80 -6 -3 -1 -9 -1
-13 0 -5 1 -63 4 -130 6 -67 3 -133 7 -147 10 -14 3 -45 8 -70 11 -25 3 -48 8
-51 10 -3 2 -20 6 -38 9 -52 9 -138 33 -159 44 -11 6 -22 8 -25 5 -3 -3 -24 4
-48 15 -23 12 -47 21 -51 21 -5 0 -36 13 -69 29 -32 17 -59 27 -59 24 0 -3 -6
-1 -13 5 -7 6 -39 25 -71 42 -57 30 -181 108 -220 140 -107 86 -224 199 -305
295 -72 86 -230 352 -247 415 -2 8 -20 60 -38 115 -19 55 -37 114 -40 130 -7
37 -14 72 -21 105 -17 77 -23 325 -12 430 12 104 23 175 27 175 1 0 3 9 4 21
5 44 81 261 118 338 66 134 169 292 237 363 11 12 21 25 21 27 0 10 156 159
221 212 121 97 267 184 434 259 32 14 97 39 105 40 3 1 41 13 85 27 44 14 105
31 135 37 30 6 66 13 80 15 99 21 410 41 410 26 0 -3 28 -5 63 -5 54 -1 91 -4
192 -20 11 -2 31 -6 45 -9 115 -25 168 -38 185 -46 11 -5 49 -19 85 -31 36
-12 70 -26 77 -31 22 -18 81 -13 104 8 11 10 22 17 23 15 2 -8 46 11 46 20 0
5 7 9 15 9 8 0 60 22 117 49 57 27 148 70 203 96 55 26 119 56 143 67 l43 21
-43 25 c-24 14 -53 34 -65 45 -13 11 -23 17 -23 12 0 -4 -8 -1 -18 8 -23 21
-292 157 -309 157 -7 0 -21 5 -31 11 -18 11 -20 38 -5 79 11 31 12 86 3 120
-19 69 -87 111 -200 124 -9 1 -21 6 -28 10 -7 4 -16 6 -18 3 -3 -3 -26 2 -52
10 -26 7 -65 16 -87 20 -22 3 -48 9 -57 14 -10 6 -18 8 -18 5 0 -3 -15 0 -32
5 -18 5 -48 12 -67 15 -19 3 -44 9 -55 13 -43 15 -101 11 -142 -9z"/>
</g>
</svg>
